<svg width="44" height="40" viewBox="0 0 44 40" fill="none" xmlns="http://www.w3.org/2000/svg">
<path d="M40.425 28.5375C42.9985 28.5375 43.9885 30.0633 43.9885 31.0367C43.9885 32.8445 36.316 37.9297 25.1396 37.9297C9.43021 37.9297 0 28.7266 0 20.4297C0 12.3203 9.15177 3 25.1396 3C36.5372 3 43.9885 8.16563 43.9885 9.89297C43.9885 10.8516 42.8969 12.3938 40.3207 12.3938C36.732 12.3938 35.0728 7.99922 25.1384 7.99922C13.9104 7.99922 7.33219 14.6078 7.33219 20.4289C7.33219 26.2125 13.797 32.9289 25.1384 32.9289C35.2115 32.9281 36.8156 28.5375 40.425 28.5375Z" fill="#3b58da"/>
</svg>
