<svg width="44" height="40" viewBox="0 0 44 40" fill="none" xmlns="http://www.w3.org/2000/svg">
<g clip-path="url(#clip0_1036_191)">
<path d="M39.9616 35.705L43.909 0H0L0.0515873 0.463333L3.94127 35.71L3.97429 36.0033L21.7884 40H22.069L39.9244 36L39.9575 35.7067L39.9616 35.705ZM21.9927 7.79833H34.7513L34.3675 11.3983L21.7802 15.9183L21.9906 16.7317H33.8021L32.4422 29.3167L21.9473 31.6667L11.4565 29.32L10.7962 23.2933H15.1151L15.4617 26.3483L15.4948 26.645L21.8606 28.0117H22.1351L28.4308 26.5983L28.4617 26.3033L29.056 20.66L29.1035 20.2H10.4351L10.043 16.5783L23.0616 12.0767L22.8552 11.26H9.48381L9.10206 7.79333H21.9783L21.9927 7.79833Z" fill="#3b58da"/>
</g>
<defs>
<clipPath id="clip0_1036_191">
<rect width="43.3333" height="40" fill="white"/>
</clipPath>
</defs>
</svg>
