<svg width="45" height="40" viewBox="0 0 45 40" fill="none" xmlns="http://www.w3.org/2000/svg">
<path d="M44.1513 18.2188L24.509 0.754179C23.9653 0.271263 23.228 0 22.4594 0C21.6908 0 20.9536 0.271263 20.4098 0.754179L16.3256 4.38192L21.5006 8.982C24.2187 8.16591 26.7922 10.4793 25.859 12.8821L30.8472 17.3161C34.2855 16.2625 36.9925 20.084 34.41 22.3778C31.7492 24.743 27.3577 22.1215 28.785 19.0438L24.1293 14.9107V25.7903C26.6706 26.91 26.3653 29.527 25.0414 30.7011C24.3946 31.2757 23.5175 31.5985 22.603 31.5985C21.6886 31.5985 20.8115 31.2757 20.1647 30.7011C18.3999 29.1297 19.0528 26.5127 21.2947 25.701V14.7187C19.2054 13.9589 18.8237 11.974 19.4224 10.7008L14.3207 6.16052L0.848852 18.1375C0.305335 18.6207 0 19.2761 0 19.9594C0 20.6427 0.305335 21.2981 0.848852 21.7813L20.4972 39.2459C21.0408 39.7288 21.7778 40 22.5463 40C23.3148 40 24.0518 39.7288 24.5954 39.2459L44.1513 21.8626C44.6948 21.3793 45.0002 20.724 45.0002 20.0407C45.0002 19.3573 44.6948 18.702 44.1513 18.2188V18.2188Z" fill="#3b58da"/>
</svg>
