<svg width="27" height="27" viewBox="0 0 27 27" fill="none" xmlns="http://www.w3.org/2000/svg">
<path d="M23.5654 9.34314C23.554 8.49109 23.3945 7.64751 23.094 6.85014C22.8334 6.17756 22.4354 5.56674 21.9253 5.0567C21.4153 4.54666 20.8045 4.14862 20.1319 3.88801C19.3448 3.59254 18.5132 3.43277 17.6726 3.41551C16.5904 3.36714 16.2473 3.35364 13.5 3.35364C10.7528 3.35364 10.4006 3.35364 9.32627 3.41551C8.48607 3.4329 7.65491 3.59266 6.86814 3.88801C6.19546 4.14844 5.58454 4.54641 5.07448 5.05647C4.56442 5.56654 4.16644 6.17745 3.90602 6.85014C3.60995 7.63666 3.45053 8.46801 3.43464 9.30826C3.38627 10.3916 3.37164 10.7348 3.37164 13.482C3.37164 16.2293 3.37164 16.5803 3.43464 17.6558C3.45152 18.4973 3.61014 19.3275 3.90602 20.1161C4.16688 20.7886 4.56515 21.3993 5.07538 21.9091C5.58562 22.419 6.19659 22.8168 6.86927 23.0771C7.65388 23.3845 8.48519 23.5557 9.32739 23.5834C10.4108 23.6318 10.7539 23.6464 13.5011 23.6464C16.2484 23.6464 16.6005 23.6464 17.6749 23.5834C18.5154 23.5668 19.3471 23.4074 20.1341 23.112C20.8065 22.8511 21.4172 22.453 21.9272 21.943C22.4372 21.433 22.8354 20.8223 23.0963 20.1499C23.3921 19.3624 23.5508 18.5321 23.5676 17.6895C23.616 16.6073 23.6306 16.2641 23.6306 13.5158C23.6284 10.7685 23.6284 10.4198 23.5654 9.34314V9.34314ZM13.4933 18.6773C10.62 18.6773 8.29239 16.3496 8.29239 13.4764C8.29239 10.6031 10.62 8.27551 13.4933 8.27551C14.8726 8.27551 16.1955 8.82346 17.1708 9.79881C18.1462 10.7742 18.6941 12.097 18.6941 13.4764C18.6941 14.8557 18.1462 16.1786 17.1708 17.154C16.1955 18.1293 14.8726 18.6773 13.4933 18.6773V18.6773ZM18.9011 9.29589C18.7418 9.29604 18.5841 9.26477 18.4369 9.20387C18.2897 9.14298 18.1559 9.05366 18.0433 8.94101C17.9306 8.82837 17.8413 8.69462 17.7804 8.54741C17.7195 8.40021 17.6882 8.24244 17.6884 8.08314C17.6884 7.92395 17.7197 7.76632 17.7807 7.61925C17.8416 7.47218 17.9309 7.33855 18.0434 7.22599C18.156 7.11343 18.2896 7.02414 18.4367 6.96322C18.5838 6.9023 18.7414 6.87095 18.9006 6.87095C19.0598 6.87095 19.2174 6.9023 19.3645 6.96322C19.5115 7.02414 19.6452 7.11343 19.7577 7.22599C19.8703 7.33855 19.9596 7.47218 20.0205 7.61925C20.0814 7.76632 20.1128 7.92395 20.1128 8.08314C20.1128 8.75364 19.5705 9.29589 18.9011 9.29589Z" fill="#3B58DA"/>
<path d="M13.4932 16.8548C15.3591 16.8548 16.8716 15.3422 16.8716 13.4764C16.8716 11.6106 15.3591 10.098 13.4932 10.098C11.6274 10.098 10.1149 11.6106 10.1149 13.4764C10.1149 15.3422 11.6274 16.8548 13.4932 16.8548Z" fill="#3B58DA"/>
</svg>
