<svg width="45" height="40" viewBox="0 0 45 40" fill="none" xmlns="http://www.w3.org/2000/svg">
<path fill-rule="evenodd" clip-rule="evenodd" d="M0 0H45V40H0V0ZM34.4006 33.5333C32.3138 33.5333 31.1344 32.5667 30.2288 31.25L26.7919 33.025C28.0331 35.205 30.57 36.8683 34.4981 36.8683C38.5144 36.8683 41.505 35.015 41.505 31.63C41.505 28.4917 39.4762 27.0967 35.8838 25.725L34.8262 25.3233C33.0112 24.6233 32.2256 24.1683 32.2256 23.04C32.2256 22.1283 33.0131 21.43 34.2506 21.43C35.4637 21.43 36.2456 21.885 36.9713 23.04L40.2638 21.1617C38.8706 18.9833 36.9394 18.1517 34.2506 18.1517C30.4744 18.1517 28.0575 20.2983 28.0575 23.1183C28.0575 26.1767 30.0825 27.625 33.135 28.78L34.1925 29.1833C36.1219 29.9333 37.2713 30.39 37.2713 31.6783C37.2713 32.755 36.1519 33.5333 34.4006 33.5333ZM18.0131 33.5083C16.56 33.5083 15.9544 32.625 15.2906 31.575L11.8481 33.4283C12.8456 35.305 14.8069 36.8617 18.1912 36.8617C21.9394 36.8617 24.5062 35.09 24.5062 31.1983V18.365H20.2781V31.1483C20.2781 33.0267 19.4006 33.5083 18.0112 33.5083H18.0131Z" fill="#3b58da"/>
</svg>
