<svg width="40" height="40" viewBox="0 0 40 40" fill="none" xmlns="http://www.w3.org/2000/svg">
<g clip-path="url(#clip0_1072_209)">
<path d="M37.0046 2.98755H7.13543C4.81926 2.98755 3.33626 5.43722 4.41993 7.47371L7.40776 13.1025H1.99126C1.64842 13.1026 1.31136 13.1908 1.01243 13.3587C0.714062 13.5262 0.463992 13.7679 0.286431 14.0604C0.109393 14.3523 0.01108 14.6852 0.00108976 15.0264C-0.0089005 15.3677 0.0697735 15.7058 0.229431 16.0075L9.83943 34.1042C10.0089 34.4225 10.2623 34.6887 10.5726 34.8745C10.883 35.0604 11.238 35.1586 11.5998 35.1586C11.9615 35.1586 12.3165 35.0604 12.6269 34.8745C12.9368 34.6891 13.1902 34.4228 13.3599 34.104L15.9699 29.2157L19.2444 35.3834C20.3968 37.5527 23.5186 37.5567 24.6751 35.3897L39.6464 7.36005C40.7048 5.37755 39.2608 2.98755 37.0046 2.98755V2.98755ZM23.5874 14.9634L17.1319 27.0522C17.0189 27.2641 16.8502 27.4413 16.6441 27.5645C16.4376 27.6881 16.2014 27.7533 15.9608 27.7533C15.7201 27.7533 15.4839 27.6881 15.2774 27.5645C15.0713 27.4412 14.9026 27.2641 14.7896 27.0522L8.39643 15.0144C8.28964 14.8138 8.2367 14.589 8.24277 14.3618C8.24885 14.1347 8.31374 13.913 8.4311 13.7184C8.5487 13.5234 8.71467 13.3621 8.91293 13.25C9.11158 13.1378 9.33576 13.0785 9.56393 13.0779H22.4484C22.6709 13.0779 22.8896 13.1351 23.0834 13.2442C23.277 13.353 23.4391 13.5101 23.5539 13.7002C23.6684 13.8899 23.7317 14.106 23.7376 14.3275C23.7434 14.5489 23.6916 14.7681 23.5873 14.9635L23.5874 14.9634Z" fill="#3b58da"/>
</g>
<defs>
<clipPath id="clip0_1072_209">
<rect width="40" height="40" fill="white"/>
</clipPath>
</defs>
</svg>
