<svg width="610" height="400" viewBox="0 0 610 400" fill="none" xmlns="http://www.w3.org/2000/svg">
<g clip-path="url(#clip0_1082_11)">
<path d="M588.652 167.46C558.146 197.618 500.584 204.524 452.957 194.02C437.373 190.499 422.339 185.661 408.127 179.592C399.872 176.127 391.814 172.325 383.921 168.274C381.979 167.282 380.037 166.274 378.115 165.246C376.805 164.554 375.499 163.854 374.198 163.144C357.898 154.279 342.238 144.554 326.84 134.885C288.402 110.747 248.911 85.8665 201.684 74.3498C191.955 71.9783 179.368 70.8689 173.351 77.2404C168.131 82.7723 171.317 90.6044 175.734 96.5383C192.12 118.518 221.861 132.396 251.63 143.068C281.398 153.74 312.93 162.386 338.808 177.989C364.685 193.593 384.441 218.392 379.148 243.425C374.586 264.998 351.803 282.525 325.313 290.163C298.823 297.797 269.279 296.733 241.742 291.777C214.205 286.815 188.064 278.158 161.489 270.697C145.466 266.194 124.519 263.079 113.887 273.385C104.908 282.092 110.069 295.827 121.003 303.074C131.938 310.321 146.737 312.749 160.857 314.927C204.699 321.695 248.542 328.462 292.385 335.227C305.834 337.299 319.599 339.466 331.316 344.983C343.034 350.495 352.487 360.123 352.152 370.724C351.816 381.172 341.922 390.403 329.796 395.029C317.677 399.65 303.681 400.363 290.179 399.864C239.583 397.991 94.5268 335.848 59.7357 327.904C37.38 322.805 12.9375 315.314 3.51045 298.835C-8.22705 278.321 11.0876 253.501 37.4523 244.132C63.8106 234.758 94.3687 236.835 123.097 239.99C151.825 243.145 181.501 247.16 209.466 241.165C237.43 235.171 263.051 215.628 260.293 193.297C257.89 173.867 235.251 159.226 211.427 152.773C192.778 147.719 172.937 146.345 153.346 144.071C147.908 143.445 142.49 142.742 137.125 141.877C123.385 139.652 109.982 136.326 97.1337 131.953C83.6507 127.375 70.8416 121.692 58.9261 115.002C49.4224 109.673 40.541 103.712 32.3837 97.1846C31.1394 96.1872 29.9083 95.1677 28.6904 94.1261C27.5319 93.1286 26.3863 92.1108 25.2674 91.0726C10.7058 77.6221 -0.0510048 61.0571 3.17491 43.9883C6.39376 26.9653 23.5558 12.7921 43.9894 5.98292C55.7992 2.04905 68.5373 0.28822 81.4333 0.0337648C90.8628 -0.111925 100.29 0.412764 109.595 1.60121C152.654 6.92441 192.113 23.0976 229.379 40.6092C266.639 58.1207 302.95 77.3423 343.455 89.8258C383.961 102.314 430.068 107.602 471.159 96.3094C512.25 85.0217 546.007 54.2225 543.999 20.5479C571.253 38.6906 594.412 61.4948 604.668 88.1413C614.924 114.788 610.803 145.556 588.652 167.46Z" fill="#3F3D56"/>
<path d="M392.287 132.658C394.933 132.658 397.078 131 397.078 128.955C397.078 126.909 394.933 125.251 392.287 125.251C389.641 125.251 387.496 126.909 387.496 128.955C387.496 131 389.641 132.658 392.287 132.658Z" fill="#3B58DA"/>
<path d="M561.469 85.8255C565.56 85.8255 568.876 83.2618 568.876 80.0993C568.876 76.9368 565.56 74.373 561.469 74.373C557.378 74.373 554.062 76.9368 554.062 80.0993C554.062 83.2618 557.378 85.8255 561.469 85.8255Z" fill="#3B58DA"/>
<path d="M75.6454 262.369C77.157 262.369 78.3823 261.422 78.3823 260.253C78.3823 259.085 77.157 258.138 75.6454 258.138C74.1339 258.138 72.9086 259.085 72.9086 260.253C72.9086 261.422 74.1339 262.369 75.6454 262.369Z" fill="#3B58DA"/>
<path d="M154.201 138.625C154.203 140.46 153.916 142.289 153.346 144.071C147.908 143.445 142.49 142.742 137.125 141.877C123.385 139.652 109.982 136.326 97.1337 131.953C99.1999 126.796 103.59 122.383 109.506 119.514C115.422 116.645 122.473 115.512 129.379 116.319C136.284 117.126 142.586 119.821 147.14 123.914C151.695 128.007 154.2 133.226 154.201 138.625V138.625Z" fill="#3B58DA"/>
<path d="M514.072 119.413C515.618 119.413 516.871 118.445 516.871 117.25C516.871 116.054 515.618 115.086 514.072 115.086C512.526 115.086 511.273 116.054 511.273 117.25C511.273 118.445 512.526 119.413 514.072 119.413Z" fill="#F0F0F0"/>
<path d="M257.994 357.583C259.54 357.583 260.793 356.615 260.793 355.419C260.793 354.224 259.54 353.256 257.994 353.256C256.448 353.256 255.195 354.224 255.195 355.419C255.195 356.615 256.448 357.583 257.994 357.583Z" fill="#F0F0F0"/>
<path d="M298.15 387.609C299.696 387.609 300.949 386.64 300.949 385.445C300.949 384.25 299.696 383.281 298.15 383.281C296.604 383.281 295.351 384.25 295.351 385.445C295.351 386.64 296.604 387.609 298.15 387.609Z" fill="#F0F0F0"/>
<path d="M49.9719 302.112C51.5178 302.112 52.771 301.143 52.771 299.948C52.771 298.753 51.5178 297.784 49.9719 297.784C48.426 297.784 47.1729 298.753 47.1729 299.948C47.1729 301.143 48.426 302.112 49.9719 302.112Z" fill="#F0F0F0"/>
<path d="M187.556 261.908C189.102 261.908 190.355 260.939 190.355 259.744C190.355 258.549 189.102 257.581 187.556 257.581C186.01 257.581 184.757 258.549 184.757 259.744C184.757 260.939 186.01 261.908 187.556 261.908Z" fill="#F0F0F0"/>
<path d="M173.732 47.1483C175.278 47.1483 176.531 46.1795 176.531 44.9844C176.531 43.7894 175.278 42.8206 173.732 42.8206C172.186 42.8206 170.933 43.7894 170.933 44.9844C170.933 46.1795 172.186 47.1483 173.732 47.1483Z" fill="#F0F0F0"/>
<path d="M342.914 216.615C344.46 216.615 345.713 215.647 345.713 214.451C345.713 213.256 344.46 212.288 342.914 212.288C341.368 212.288 340.115 213.256 340.115 214.451C340.115 215.647 341.368 216.615 342.914 216.615Z" fill="#F0F0F0"/>
<path d="M363.98 254.275C365.526 254.275 366.779 253.306 366.779 252.111C366.779 250.916 365.526 249.947 363.98 249.947C362.434 249.947 361.181 250.916 361.181 252.111C361.181 253.306 362.434 254.275 363.98 254.275Z" fill="#F0F0F0"/>
<path d="M111.675 51.8916C111.696 62.8172 108.357 73.5901 101.933 83.3219C101.083 84.6043 100.184 85.8647 99.2336 87.1031C89.8264 99.3843 75.7518 109.126 58.926 115.002C49.4223 109.673 40.5409 103.712 32.3836 97.1846C31.1393 96.1871 29.9082 95.1676 28.6903 94.126C27.5319 93.1286 26.3863 92.1107 25.2674 91.0726C10.7057 77.6221 -0.0510602 61.0571 3.17486 43.9882C6.3937 26.9652 23.5558 12.792 43.9893 5.98282C55.7991 2.04894 68.5372 0.288146 81.4332 0.0336914C91.5166 6.91775 99.4657 15.4685 104.691 25.0517C105.349 26.2578 105.955 27.4792 106.528 28.7159C109.944 36.1569 111.685 43.9957 111.675 51.8916V51.8916Z" fill="#3B58DA"/>
<path d="M152.49 55.454C152.49 66.0546 139.1 75.8868 114.783 83.1489C109.918 84.6044 104.711 85.9225 99.2336 87.1031C78.7341 91.5205 54.3375 93.9683 28.6903 94.1261C27.5318 93.1286 26.3862 92.1108 25.2673 91.0726C25.5438 91.0777 25.8202 91.0777 26.0966 91.0777C53.9492 91.0777 80.3734 88.35 101.933 83.3219C105.915 82.3906 109.734 81.383 113.361 80.299C135.716 73.6272 148.54 64.5686 148.54 55.454C148.54 46.3395 135.716 37.286 113.361 30.6091C111.149 29.9475 108.871 29.3164 106.528 28.7159C105.955 27.4793 105.349 26.2579 104.691 25.0518C108.193 25.8965 111.557 26.799 114.783 27.7592C139.1 35.0213 152.49 44.8585 152.49 55.454Z" fill="#E4E4E4"/>
<path d="M30.2229 17.6315C31.7688 17.6315 33.022 16.6627 33.022 15.4676C33.022 14.2725 31.7688 13.3037 30.2229 13.3037C28.677 13.3037 27.4238 14.2725 27.4238 15.4676C27.4238 16.6627 28.677 17.6315 30.2229 17.6315Z" fill="#F0F0F0"/>
<path d="M88.8114 31.3722C90.3573 31.3722 91.6105 30.4034 91.6105 29.2083C91.6105 28.0132 90.3573 27.0444 88.8114 27.0444C87.2655 27.0444 86.0123 28.0132 86.0123 29.2083C86.0123 30.4034 87.2655 31.3722 88.8114 31.3722Z" fill="#F0F0F0"/>
<path d="M58.5298 72.1341C73.5627 72.1341 85.7493 62.713 85.7493 51.0915C85.7493 39.4699 73.5627 30.0488 58.5298 30.0488C43.4968 30.0488 31.3102 39.4699 31.3102 51.0915C31.3102 62.713 43.4968 72.1341 58.5298 72.1341Z" fill="#F0F0F0"/>
<path opacity="0.3" d="M561.207 162.462C555.098 163.857 541.629 164.885 526.818 165.516C512.013 166.142 495.773 166.417 479.736 166.681C451.667 167.149 423.599 167.619 395.534 168.091C391.676 168.157 387.805 168.218 383.921 168.274C381.979 167.282 380.037 166.274 378.115 165.246C381.558 165.261 385.001 165.246 388.417 165.195C403.012 164.971 415.368 164.091 429.442 163.674C451.1 163.027 474.483 163.536 497.056 163.796C519.629 164.06 545.349 163.964 561.207 162.462Z" fill="#F0F0F0"/>
<path opacity="0.3" d="M130.398 322.886L40.9215 265.262L127.846 325.195C128.015 325.414 128.248 325.599 128.528 325.734C128.807 325.87 129.124 325.952 129.452 325.974C129.781 325.995 130.111 325.956 130.417 325.86C130.722 325.763 130.993 325.612 131.207 325.418C131.421 325.224 131.572 324.994 131.648 324.745C131.724 324.497 131.723 324.239 131.644 323.991C131.565 323.744 131.41 323.515 131.194 323.322C130.977 323.13 130.704 322.981 130.398 322.886H130.398Z" fill="#F0F0F0"/>
<path d="M62.4795 104.655C64.0254 104.655 65.2785 103.686 65.2785 102.491C65.2785 101.296 64.0254 100.327 62.4795 100.327C60.9336 100.327 59.6804 101.296 59.6804 102.491C59.6804 103.686 60.9336 104.655 62.4795 104.655Z" fill="#F0F0F0"/>
<path d="M297.562 353.221L309.139 353.221L314.647 318.698L297.56 318.698L297.562 353.221Z" fill="#FFB6B6"/>
<path d="M294.609 350.299L297.867 350.299L310.59 346.299L317.409 350.298H317.41C321.264 350.298 324.959 351.482 327.684 353.588C330.409 355.695 331.94 358.552 331.94 361.531V361.896L294.609 361.897L294.609 350.299Z" fill="#2F2E41"/>
<path d="M210.858 353.221L199.281 353.221L193.773 318.698L210.86 318.698L210.858 353.221Z" fill="#FFB6B6"/>
<path d="M213.811 361.897L176.48 361.896V361.531C176.48 358.552 178.011 355.695 180.736 353.588C183.461 351.482 187.156 350.298 191.01 350.298H191.011L197.83 346.299L210.553 350.299L213.812 350.299L213.811 361.897Z" fill="#2F2E41"/>
<path d="M252.342 88.646L240.619 95.5469L209.478 101.922C209.478 101.922 220.637 162.463 215.37 166.534C210.104 170.605 214.854 170.714 213.795 176.003C212.737 181.292 208.52 195.256 208.52 195.256H301.464C301.464 195.256 302.213 186.578 297.631 184.698C293.05 182.819 301.855 174.047 298.11 172.581C294.366 171.114 299.633 158.391 299.633 158.391L311.046 116.737L280.689 98.3759L276.072 89.7765L252.342 88.646Z" fill="#3B58DA"/>
<path d="M266.969 142.744C269.21 142.744 271.026 141.34 271.026 139.609C271.026 137.877 269.21 136.473 266.969 136.473C264.729 136.473 262.913 137.877 262.913 139.609C262.913 141.34 264.729 142.744 266.969 142.744Z" fill="#F2F2F2"/>
<path d="M208.52 195.256L204.688 271.552C204.688 271.552 188.139 327.903 191.013 329.385C193.888 330.866 195.106 339.7 195.106 339.7L211.395 341.182C211.395 341.182 211.395 335.256 215.228 333.033C219.06 330.811 254.513 226.367 254.513 226.367L289.1 327.349C289.1 327.349 289.966 333.033 292.84 333.033C295.715 333.033 296.673 341.182 296.673 341.182H312.962V333.033C312.962 333.033 320.281 331.24 317.407 325.314C314.532 319.388 301.464 195.256 301.464 195.256H208.52Z" fill="#2F2E41"/>
<path d="M264.515 84.0994C275.364 84.0994 284.158 77.3007 284.158 68.9142C284.158 60.5276 275.364 53.729 264.515 53.729C253.667 53.729 244.873 60.5276 244.873 68.9142C244.873 77.3007 253.667 84.0994 264.515 84.0994Z" fill="#FFB6B6"/>
<path opacity="0.1" d="M298.11 137.107L301.943 139.33L303.859 128.959L298.11 137.107Z" fill="black"/>
<path d="M211.315 101.863C211.315 101.863 206.524 101.123 203.65 107.789C200.775 114.456 190.235 139.641 190.235 144.086C190.235 148.53 255.874 168.14 255.874 168.14L249.045 149.618L218.981 137.419L211.315 101.863Z" fill="#3B58DA"/>
<path d="M258.919 165.394C265.1 165.394 270.11 161.521 270.11 156.743C270.11 151.965 265.1 148.091 258.919 148.091C252.739 148.091 247.728 151.965 247.728 156.743C247.728 161.521 252.739 165.394 258.919 165.394Z" fill="#FFB6B6"/>
<path opacity="0.1" d="M218.105 128.244L218.981 137.419L246.781 148.699L222.054 135.877L218.105 128.244Z" fill="black"/>
<path d="M284.937 129.552H284.576V121.914C284.576 121.333 284.428 120.759 284.141 120.222C283.854 119.686 283.433 119.199 282.902 118.788C282.371 118.378 281.74 118.052 281.046 117.83C280.353 117.608 279.609 117.493 278.858 117.493H257.926C257.175 117.493 256.432 117.608 255.738 117.83C255.044 118.052 254.414 118.378 253.883 118.788C253.352 119.199 252.931 119.686 252.643 120.222C252.356 120.759 252.208 121.333 252.208 121.914V163.816C252.208 164.396 252.356 164.971 252.643 165.508C252.931 166.044 253.352 166.531 253.883 166.942C254.414 167.352 255.044 167.678 255.738 167.9C256.432 168.122 257.175 168.236 257.926 168.236H278.858C279.609 168.236 280.353 168.122 281.046 167.9C281.74 167.678 282.371 167.352 282.902 166.942C283.433 166.531 283.854 166.044 284.141 165.508C284.428 164.971 284.576 164.396 284.576 163.816V134.989H284.937V129.552Z" fill="#F0F0F0"/>
<path d="M311.046 116.737C311.046 116.737 313.92 118.219 315.837 124.885C317.753 131.552 330.209 156.737 325.418 162.663C320.627 168.589 319.213 174.914 302.924 166.025L280.384 150.07L296.673 138.219L303.38 141.922L311.046 116.737Z" fill="#3B58DA"/>
<path d="M268.648 136.169C271.294 136.169 273.439 134.511 273.439 132.465C273.439 130.42 271.294 128.762 268.648 128.762C266.002 128.762 263.857 130.42 263.857 132.465C263.857 134.511 266.002 136.169 268.648 136.169Z" fill="#3B58DA"/>
<path d="M282.517 149.231C288.698 149.231 293.708 145.358 293.708 140.579C293.708 135.801 288.698 131.928 282.517 131.928C276.336 131.928 271.326 135.801 271.326 140.579C271.326 145.358 276.336 149.231 282.517 149.231Z" fill="#FFB6B6"/>
<path opacity="0.1" d="M217.577 155.935L249.703 166.921L216.684 161.932L217.577 155.935Z" fill="black"/>
<path d="M244.698 71.9403L242.001 64.0054C241.297 61.9351 240.588 59.8228 240.746 57.6857C240.904 55.5485 242.077 53.3431 244.406 52.1853C246.735 51.0275 250.29 51.301 251.789 53.101C252.074 50.2268 255.456 48.016 259.044 47.2328C262.633 46.4496 266.443 46.7593 270.168 46.8915C273.893 47.0236 277.824 46.9314 281.039 45.4709C281.284 46.0392 281.268 46.6554 280.994 47.2155C280.719 47.7756 280.203 48.2454 279.532 48.5454C280.331 48.714 281.184 48.6416 281.916 48.3428C282.649 48.0441 283.208 47.5413 283.479 46.9362C283.503 48.6008 282.708 50.2102 281.253 51.4377C282.64 50.9057 284.234 50.7916 285.724 51.1178C287.214 51.444 288.494 52.187 289.315 53.2024C290.955 55.4013 290.036 58.1628 289.076 60.5903L284.15 73.0497C283.403 71.1556 283.262 69.156 282.862 67.2001C282.462 65.2442 281.751 63.2469 280.081 61.7455C278.411 60.2442 275.574 59.3748 273.201 60.1202C271.87 60.5384 270.855 61.3869 269.653 61.9959C267.186 63.2454 264.049 63.4246 261.119 63.1703C258.189 62.9161 255.333 62.271 252.403 62.0133C250.569 61.852 248.522 61.8947 247.138 62.8393C246.186 63.604 245.557 64.5743 245.335 65.6216C244.682 67.7091 244.425 69.859 244.573 72.0037" fill="#2F2E41"/>
</g>
<defs>
<clipPath id="clip0_1082_11">
<rect width="610" height="400" fill="white"/>
</clipPath>
</defs>
</svg>
